<svg width="32" height="32" viewBox="0 0 32 32" fill="none" xmlns="http://www.w3.org/2000/svg">
<rect width="32" height="32" rx="4" fill="#1D1D1D"/>
<path d="M20.773 12.2877L12.2878 20.773C11.9979 21.0629 11.517 21.0629 11.2271 20.773C10.9372 20.4831 10.9372 20.0022 11.2271 19.7123L19.7124 11.227C20.0023 10.9371 20.4831 10.9371 20.773 11.227C21.063 11.5169 21.063 11.9978 20.773 12.2877Z" fill="white" fill-opacity="0.87"/>
<path d="M20.773 20.773C20.4831 21.0629 20.0023 21.0629 19.7124 20.773L11.2271 12.2877C10.9372 11.9978 10.9372 11.5169 11.2271 11.227C11.517 10.9371 11.9979 10.9371 12.2878 11.227L20.773 19.7123C21.063 20.0022 21.063 20.4831 20.773 20.773Z" fill="white" fill-opacity="0.87"/>
</svg>
