<svg width="32" height="32" viewBox="0 0 32 32" fill="none" xmlns="http://www.w3.org/2000/svg">
<rect width="32" height="32" rx="4" fill="#1D1D1D"/>
<path d="M24.4201 16.22C24.0101 16.22 23.6701 15.88 23.6701 15.47V12.15C23.6701 10.91 22.6601 9.90002 21.4201 9.90002H7.58008C7.17008 9.90002 6.83008 9.56002 6.83008 9.15002C6.83008 8.74002 7.17008 8.40002 7.58008 8.40002H21.4201C23.4901 8.40002 25.1701 10.08 25.1701 12.15V15.47C25.1701 15.89 24.8301 16.22 24.4201 16.22Z" fill="white" fill-opacity="0.87"/>
<path d="M10.7401 13.07C10.5501 13.07 10.3601 12.9999 10.2101 12.8499L7.05008 9.68997C6.91008 9.54997 6.83008 9.35994 6.83008 9.15994C6.83008 8.95994 6.91008 8.76998 7.05008 8.62998L10.2101 5.46994C10.5001 5.17994 10.9801 5.17994 11.2701 5.46994C11.5601 5.75994 11.5601 6.24 11.2701 6.53L8.64011 9.15994L11.2701 11.7899C11.5601 12.0799 11.5601 12.5599 11.2701 12.8499C11.1201 12.9899 10.9301 13.07 10.7401 13.07Z" fill="white" fill-opacity="0.87"/>
<path d="M24.4201 23.59H10.5801C8.51008 23.59 6.83008 21.91 6.83008 19.84V16.52C6.83008 16.11 7.17008 15.77 7.58008 15.77C7.99008 15.77 8.33008 16.11 8.33008 16.52V19.84C8.33008 21.08 9.34008 22.09 10.5801 22.09H24.4201C24.8301 22.09 25.1701 22.43 25.1701 22.84C25.1701 23.25 24.8301 23.59 24.4201 23.59Z" fill="white" fill-opacity="0.87"/>
<path d="M21.2602 26.75C21.0702 26.75 20.8802 26.68 20.7302 26.53C20.4402 26.24 20.4402 25.7599 20.7302 25.4699L23.3602 22.84L20.7302 20.21C20.4402 19.92 20.4402 19.44 20.7302 19.15C21.0202 18.86 21.5002 18.86 21.7902 19.15L24.9502 22.31C25.0902 22.45 25.1702 22.64 25.1702 22.84C25.1702 23.04 25.0902 23.23 24.9502 23.37L21.7902 26.53C21.6502 26.68 21.4602 26.75 21.2602 26.75Z" fill="white" fill-opacity="0.87"/>
</svg>
