<svg width="14" height="15" viewBox="0 0 14 15" fill="none" xmlns="http://www.w3.org/2000/svg">
<path d="M5.25146 1.81067C4.53193 1.81067 3.93646 2.40616 3.93646 3.12566V3.56143H1.75079C1.03101 3.56143 0.439209 4.15581 0.439209 4.87557V5.75053C0.439209 6.24747 0.720251 6.70135 1.16293 6.92283C1.21226 6.94751 1.26142 6.97249 1.31075 6.99717V11.8735C1.31075 12.593 1.90623 13.1885 2.62574 13.1885H11.3736C12.0931 13.1885 12.6886 12.593 12.6886 11.8735V6.99717C12.7381 6.97238 12.7877 6.94762 12.8372 6.92283C13.28 6.70138 13.5601 6.24747 13.5601 5.75053V4.87557C13.5601 4.15581 12.9692 3.56143 12.2494 3.56143H10.0629V3.12566C10.0629 2.40616 9.46824 1.81067 8.74871 1.81067H5.25146ZM5.25146 2.68562H8.74871C8.99866 2.68562 9.1879 2.87573 9.1879 3.12566V3.56143H4.81142V3.12566C4.81142 2.87573 5.00152 2.68562 5.25146 2.68562ZM1.75079 4.43639H12.2494C12.4964 4.43639 12.6886 4.6286 12.6886 4.87557V5.75053C12.6886 5.91597 12.593 6.06701 12.4433 6.14186C10.6941 7.01701 8.94452 7.89116 7.19533 8.76673C7.07101 8.8289 6.9283 8.8289 6.80399 8.76673C5.0548 7.89116 3.30604 7.01701 1.55683 6.14186C1.40713 6.06696 1.31075 5.91597 1.31075 5.75053V4.87557C1.31075 4.6286 1.50381 4.43639 1.75079 4.43639ZM6.99966 7.0621C6.75805 7.0621 6.56218 7.25796 6.56218 7.49958C6.56218 7.74119 6.75804 7.93706 6.99966 7.93706C7.24128 7.93706 7.43714 7.74119 7.43714 7.49958C7.43713 7.25796 7.24127 7.0621 6.99966 7.0621ZM2.18655 7.43464C3.5947 8.13905 5.00224 8.84384 6.41009 9.54855C6.77994 9.73368 7.21938 9.73368 7.58923 9.54855C8.99712 8.84381 10.4054 8.13907 11.8136 7.43464V11.8735C11.8136 12.1234 11.6235 12.3127 11.3736 12.3127H2.62574C2.37583 12.3127 2.18655 12.1234 2.18655 11.8735V7.43464Z" fill="#A36200"/>
</svg>
