<svg width="14" height="15" viewBox="0 0 14 15" fill="none" xmlns="http://www.w3.org/2000/svg">
<path d="M11.6667 5.16667L8.16672 2.09834C7.84587 1.81136 7.43051 1.65271 7.00005 1.65271C6.56959 1.65271 6.15423 1.81136 5.83339 2.09834L2.33339 5.16667C2.1481 5.33238 2.00025 5.53566 1.89966 5.76298C1.79908 5.9903 1.74808 6.23643 1.75006 6.485V11.5833C1.75006 12.0475 1.93443 12.4926 2.26262 12.8208C2.59081 13.149 3.03593 13.3333 3.50006 13.3333H10.5001C10.9642 13.3333 11.4093 13.149 11.7375 12.8208C12.0657 12.4926 12.2501 12.0475 12.2501 11.5833V6.47917C12.2512 6.23158 12.1998 5.98657 12.0992 5.76032C11.9987 5.53407 11.8513 5.33173 11.6667 5.16667ZM8.16672 12.1667H5.83339V9.25C5.83339 9.09529 5.89485 8.94692 6.00424 8.83752C6.11364 8.72813 6.26201 8.66667 6.41672 8.66667H7.58339C7.7381 8.66667 7.88647 8.72813 7.99587 8.83752C8.10526 8.94692 8.16672 9.09529 8.16672 9.25V12.1667ZM11.0834 11.5833C11.0834 11.738 11.0219 11.8864 10.9125 11.9958C10.8031 12.1052 10.6548 12.1667 10.5001 12.1667H9.33339V9.25C9.33339 8.78587 9.14901 8.34075 8.82082 8.01257C8.49264 7.68438 8.04752 7.5 7.58339 7.5H6.41672C5.95259 7.5 5.50747 7.68438 5.17928 8.01257C4.8511 8.34075 4.66672 8.78587 4.66672 9.25V12.1667H3.50006C3.34535 12.1667 3.19697 12.1052 3.08758 11.9958C2.97818 11.8864 2.91672 11.738 2.91672 11.5833V6.47917C2.91683 6.39635 2.93457 6.31449 2.96877 6.23906C3.00296 6.16362 3.05283 6.09633 3.11506 6.04167L6.61505 2.97917C6.72151 2.88565 6.85836 2.83408 7.00005 2.83408C7.14175 2.83408 7.2786 2.88565 7.38505 2.97917L10.8851 6.04167C10.9473 6.09633 10.9971 6.16362 11.0313 6.23906C11.0655 6.31449 11.0833 6.39635 11.0834 6.47917V11.5833Z" fill="#A30000"/>
</svg>
