<svg width="24" height="24" viewBox="0 0 24 24" fill="none" xmlns="http://www.w3.org/2000/svg">
<circle cx="12" cy="7" r="4" fill="white" fill-opacity="0.87"/>
<circle cx="12" cy="7" r="4.125" stroke="white" stroke-opacity="0.87" stroke-width="0.25"/>
<path d="M12 12.75C8.83 12.75 6.25 10.17 6.25 7C6.25 3.83 8.83 1.25 12 1.25C15.17 1.25 17.75 3.83 17.75 7C17.75 10.17 15.17 12.75 12 12.75ZM12 2.75C9.66 2.75 7.75 4.66 7.75 7C7.75 9.34 9.66 11.25 12 11.25C14.34 11.25 16.25 9.34 16.25 7C16.25 4.66 14.34 2.75 12 2.75Z" fill="white" fill-opacity="0.87"/>
<path d="M20.0001 21.9995L3.64352 22.0141C2.85947 21.7103 4.85777 14.9431 12 15C19.1422 15.0569 21.607 21.7422 20.0001 21.9995Z" fill="white" fill-opacity="0.87"/>
<path d="M3.46287 22.4803L3.55025 22.5142L3.64396 22.5141L20.0005 22.4995L20.0401 22.4995L20.0791 22.4933C20.4967 22.4264 20.7624 22.1367 20.8827 21.792C20.9943 21.4722 20.9908 21.0941 20.9248 20.7187C20.7911 19.9581 20.3686 19.0237 19.6782 18.1209C18.2867 16.3013 15.7458 14.5298 12.004 14.5C8.25102 14.4701 5.82443 16.2418 4.44967 18.0715C3.76668 18.9805 3.33856 19.909 3.13246 20.6476C3.03039 21.0135 2.97626 21.3559 2.98476 21.6382C2.98896 21.7777 3.00909 21.9305 3.06592 22.0715C3.12272 22.2125 3.23949 22.3938 3.46287 22.4803Z" stroke="white" stroke-opacity="0.87"/>
</svg>
